<svg id="Capa_1" enable-background="new 0 0 512 512" height="512" viewBox="0 0 512 512" width="512" xmlns="http://www.w3.org/2000/svg"><g><path d="m15.307 382.447c.136-.003.272-.004.41-.004 5.77 0 13.925 2.436 18.552 9.375 20.17 30.256 64.734 30.34 84.961 0 8.303-12.454 26.651-12.58 35.039 0 20.17 30.256 64.734 30.34 84.961 0 8.303-12.454 26.651-12.58 35.039 0 20.17 30.256 64.734 30.34 84.961 0 8.303-12.454 26.651-12.58 35.039 0 20.17 30.256 64.733 30.341 84.961.001 3.696-5.544 10.792-9.223 18.078-9.372 8.282-.17 14.858-7.022 14.689-15.304-.171-8.283-6.976-14.847-15.305-14.69-17.056.35-33.312 9.057-42.424 22.725-8.304 12.455-26.651 12.58-35.039 0-20.168-30.254-64.735-30.341-84.961 0-8.304 12.455-26.651 12.58-35.039 0-20.168-30.254-64.735-30.341-84.961 0-8.304 12.455-26.651 12.58-35.039 0-20.168-30.254-64.735-30.341-84.961 0-8.298 12.445-26.646 12.59-35.038 0-9.588-14.383-26.65-23.097-44.537-22.725-8.282.169-14.859 7.021-14.69 15.304.169 8.282 6.986 14.839 15.304 14.69z"/><path d="m496.693 427.453c-17.056.35-33.312 9.057-42.424 22.725-8.304 12.455-26.651 12.58-35.039 0-20.168-30.254-64.735-30.341-84.961 0-8.304 12.455-26.651 12.58-35.039 0-20.168-30.254-64.735-30.341-84.961 0-8.304 12.455-26.651 12.58-35.039 0-20.168-30.254-64.735-30.341-84.961 0-8.298 12.445-26.646 12.59-35.038 0-9.588-14.382-26.65-23.079-44.537-22.725-8.282.169-14.859 7.021-14.69 15.304.169 8.282 6.985 14.832 15.304 14.69.136-.003.272-.004.41-.004 5.77 0 13.925 2.436 18.552 9.375 9.49 14.236 25.37 22.735 42.48 22.735 17.108 0 32.99-8.5 42.48-22.735 8.303-12.454 26.651-12.58 35.039 0 20.17 30.256 64.734 30.34 84.961 0 8.303-12.454 26.651-12.58 35.039 0 20.17 30.256 64.734 30.34 84.961 0 8.303-12.454 26.651-12.58 35.039 0 20.17 30.256 64.733 30.341 84.961.001 3.696-5.544 10.792-9.223 18.078-9.372 8.282-.17 14.858-7.022 14.689-15.304-.171-8.283-6.975-14.855-15.304-14.69z"/><path d="m76.71 349.032c32.106-35.455 87.935-35.431 120.04-.04 32.148-35.439 87.928-35.354 120 0 27.012-29.777 71.361-34.873 104.25-13.43v-222.57h45c8.28 0 15-6.72 15-15 0-46.01-41.12-82.1-87.49-74.54-35.63 5.79-62.51 38.98-62.51 77.19v154.73c0 12.72-14.65 19.52-24.53 11.36-30.87-25.5-69.99-37.43-110.15-33.6-61.32 5.84-110.49 50.35-128.21 107.86 3.06 2.46 5.94 5.15 8.6 8.04z"/></g></svg>